<mxfile host="app.diagrams.net" modified="2024-06-05T19:39:28.548Z" agent="Mozilla/5.0 (Windows NT 10.0; Win64; x64) AppleWebKit/537.36 (KHTML, like Gecko) Chrome/125.0.0.0 Safari/537.36" etag="zewr1nJo-hJx7nMbZZaM" version="24.4.14" type="github">
  <diagram name="PÃ¡gina-1" id="x4GzPo4w2P6uhhhuxVQT">
    <mxGraphModel dx="683" dy="373" grid="1" gridSize="10" guides="1" tooltips="1" connect="1" arrows="1" fold="1" page="1" pageScale="1" pageWidth="827" pageHeight="1169" math="0" shadow="0">
      <root>
        <mxCell id="0" />
        <mxCell id="1" parent="0" />
        <mxCell id="cl6wmrjO3YnIRRIFhZsC-2" value="USER" style="swimlane;childLayout=stackLayout;horizontal=1;startSize=50;horizontalStack=0;rounded=1;fontSize=14;fontStyle=0;strokeWidth=2;resizeParent=0;resizeLast=1;shadow=0;dashed=0;align=center;arcSize=4;whiteSpace=wrap;html=1;" vertex="1" parent="1">
          <mxGeometry x="30" y="20" width="160" height="210" as="geometry" />
        </mxCell>
        <mxCell id="cl6wmrjO3YnIRRIFhZsC-3" value="+Id uuid PK&lt;br&gt;+Created timestamp&lt;br&gt;+Modified timestamp&lt;div&gt;+Active boolean&lt;/div&gt;&lt;div&gt;+Deleted boolean&lt;/div&gt;&lt;div&gt;+Username string&lt;/div&gt;&lt;div&gt;+Mail string&lt;/div&gt;&lt;div&gt;+Name string&lt;/div&gt;&lt;div&gt;+Surname string&lt;/div&gt;&lt;div&gt;+Tasks task FK&lt;/div&gt;&lt;div&gt;&lt;br&gt;&lt;/div&gt;" style="align=left;strokeColor=none;fillColor=none;spacingLeft=4;fontSize=12;verticalAlign=top;resizable=0;rotatable=0;part=1;html=1;" vertex="1" parent="cl6wmrjO3YnIRRIFhZsC-2">
          <mxGeometry y="50" width="160" height="160" as="geometry" />
        </mxCell>
        <mxCell id="cl6wmrjO3YnIRRIFhZsC-5" value="TASK" style="swimlane;childLayout=stackLayout;horizontal=1;startSize=50;horizontalStack=0;rounded=1;fontSize=14;fontStyle=0;strokeWidth=2;resizeParent=0;resizeLast=1;shadow=0;dashed=0;align=center;arcSize=4;whiteSpace=wrap;html=1;" vertex="1" parent="1">
          <mxGeometry x="350" y="20" width="160" height="210" as="geometry" />
        </mxCell>
        <mxCell id="cl6wmrjO3YnIRRIFhZsC-6" value="+Id uuid PK&lt;br&gt;+Created timestamp&lt;br&gt;+Modified timestamp&lt;div&gt;+Active boolean&lt;/div&gt;&lt;div&gt;+Deleted boolean&lt;/div&gt;&lt;div&gt;+Title string&lt;/div&gt;&lt;div&gt;+Content string&lt;/div&gt;&lt;div&gt;+State state&lt;/div&gt;&lt;div&gt;+User user FK&lt;/div&gt;" style="align=left;strokeColor=none;fillColor=none;spacingLeft=4;fontSize=12;verticalAlign=top;resizable=0;rotatable=0;part=1;html=1;" vertex="1" parent="cl6wmrjO3YnIRRIFhZsC-5">
          <mxGeometry y="50" width="160" height="160" as="geometry" />
        </mxCell>
        <mxCell id="cl6wmrjO3YnIRRIFhZsC-8" value="" style="edgeStyle=entityRelationEdgeStyle;fontSize=12;html=1;endArrow=ERoneToMany;rounded=0;exitX=0.996;exitY=0.931;exitDx=0;exitDy=0;exitPerimeter=0;entryX=-0.022;entryY=0.3;entryDx=0;entryDy=0;entryPerimeter=0;" edge="1" parent="1" source="cl6wmrjO3YnIRRIFhZsC-3" target="cl6wmrjO3YnIRRIFhZsC-6">
          <mxGeometry width="100" height="100" relative="1" as="geometry">
            <mxPoint x="230" y="220" as="sourcePoint" />
            <mxPoint x="330" y="120" as="targetPoint" />
          </mxGeometry>
        </mxCell>
        <mxCell id="cl6wmrjO3YnIRRIFhZsC-10" value="TO-DO LIST API" style="swimlane;whiteSpace=wrap;html=1;" vertex="1" parent="1">
          <mxGeometry x="110" y="470" width="320" height="300" as="geometry" />
        </mxCell>
        <mxCell id="cl6wmrjO3YnIRRIFhZsC-11" value="&lt;div&gt;UserController:&lt;/div&gt;&lt;div&gt;&lt;br&gt;&lt;/div&gt;&lt;font style=&quot;font-size: 11px;&quot;&gt;/api/users/register -&amp;gt; UserDTO&lt;/font&gt;&lt;div style=&quot;font-size: 11px;&quot;&gt;&lt;font style=&quot;font-size: 11px;&quot;&gt;/api/users/getById/{id}&amp;nbsp;&lt;/font&gt;&lt;span style=&quot;background-color: initial;&quot;&gt;-&amp;gt; UserDTO&lt;/span&gt;&lt;/div&gt;&lt;div style=&quot;font-size: 11px;&quot;&gt;&lt;font style=&quot;font-size: 11px;&quot;&gt;/api/users/getByUsername/{username}&amp;nbsp;&lt;/font&gt;&lt;span style=&quot;background-color: initial;&quot;&gt;-&amp;gt; UserDTO&lt;/span&gt;&lt;/div&gt;&lt;div style=&quot;font-size: 11px;&quot;&gt;&lt;font style=&quot;font-size: 11px;&quot;&gt;/api/users/getByEmail/{email}&amp;nbsp;&lt;/font&gt;&lt;span style=&quot;background-color: initial;&quot;&gt;-&amp;gt; UserDTO&lt;/span&gt;&lt;/div&gt;&lt;div style=&quot;font-size: 11px;&quot;&gt;&lt;font style=&quot;font-size: 11px;&quot;&gt;/api/users/getAll&amp;nbsp;&lt;/font&gt;&lt;span style=&quot;background-color: initial;&quot;&gt;-&amp;gt; List&amp;lt;UserDTO&amp;gt;&lt;/span&gt;&lt;/div&gt;&lt;div style=&quot;font-size: 11px;&quot;&gt;&lt;font style=&quot;font-size: 11px;&quot;&gt;/api/users/getAllPaginated -&amp;gt; Page&amp;lt;UserDTO&amp;gt;&lt;/font&gt;&lt;/div&gt;&lt;div style=&quot;font-size: 11px;&quot;&gt;&lt;font style=&quot;font-size: 11px;&quot;&gt;/api/users/updateUser -&amp;gt; UserDTO&lt;/font&gt;&lt;/div&gt;&lt;div style=&quot;font-size: 11px;&quot;&gt;&lt;font style=&quot;font-size: 11px;&quot;&gt;/api/users/deleteUser -&amp;gt; UserDTO&lt;/font&gt;&lt;/div&gt;&lt;div style=&quot;font-size: 11px;&quot;&gt;&lt;font style=&quot;font-size: 11px;&quot;&gt;&lt;br&gt;&lt;/font&gt;&lt;/div&gt;&lt;div style=&quot;font-size: 11px;&quot;&gt;&lt;font style=&quot;font-size: 11px;&quot;&gt;TaskController:&lt;/font&gt;&lt;/div&gt;&lt;div style=&quot;font-size: 11px;&quot;&gt;&lt;font style=&quot;font-size: 11px;&quot;&gt;&lt;br&gt;&lt;/font&gt;&lt;/div&gt;&lt;div style=&quot;font-size: 11px;&quot;&gt;&lt;font style=&quot;font-size: 11px;&quot;&gt;/api/task/register -&amp;gt; TaskDTO&lt;/font&gt;&lt;/div&gt;&lt;div style=&quot;font-size: 11px;&quot;&gt;&lt;font style=&quot;font-size: 11px;&quot;&gt;/api/task/getById/{id} -&amp;gt; TaskDTO&lt;/font&gt;&lt;/div&gt;&lt;div style=&quot;font-size: 11px;&quot;&gt;&lt;font style=&quot;font-size: 11px;&quot;&gt;/api/task/getByTitle/{title} -&amp;gt; List&amp;lt;TaskDTO&amp;gt;&lt;/font&gt;&lt;/div&gt;&lt;div style=&quot;font-size: 11px;&quot;&gt;&lt;font style=&quot;font-size: 11px;&quot;&gt;/api/task/getAll -&amp;gt; List&amp;lt;TaskDTO&amp;gt;&lt;/font&gt;&lt;/div&gt;&lt;div style=&quot;font-size: 11px;&quot;&gt;&lt;font style=&quot;font-size: 11px;&quot;&gt;/api/task/getAllPaginated -&amp;gt; Page&amp;lt;TaskDTO&amp;gt;&lt;/font&gt;&lt;/div&gt;&lt;div style=&quot;font-size: 11px;&quot;&gt;&lt;font style=&quot;font-size: 11px;&quot;&gt;/api/task/updateTask -&amp;gt; TaskDTO&lt;/font&gt;&lt;/div&gt;&lt;div style=&quot;font-size: 11px;&quot;&gt;&lt;font style=&quot;font-size: 11px;&quot;&gt;/api/task/deleteTask -&amp;gt; TaskDTO&lt;/font&gt;&lt;/div&gt;" style="text;html=1;align=left;verticalAlign=middle;resizable=0;points=[];autosize=1;strokeColor=none;fillColor=none;" vertex="1" parent="cl6wmrjO3YnIRRIFhZsC-10">
          <mxGeometry x="10" y="20" width="270" height="280" as="geometry" />
        </mxCell>
      </root>
    </mxGraphModel>
  </diagram>
</mxfile>
